# xmcd
#
# Track frame offsets: 
#        150
#        11687
#        26917
#        44527
#        58189
#        73094
#        87773
#        99831
#        119326
#        129434
#        149130
#
# Disc length: 2135 seconds
#
# Revision: 0
# Processed by: cddbd v1.5.2PL0 Copyright (c) Steve Scherf et al.
# Submitted via: ExactAudioCopy v0.95b3
#
DISCID=9f08550b
DTITLE=Montana Rose - Dear Patsy
DYEAR=2004
DGENRE=Country
TTITLE0=Gotta Lotta Rhythm
TTITLE1=I Fall to Pieces
TTITLE2=Leaving On Your Mind
TTITLE3=Let the Teardrops Fall
TTITLE4=Sweet Dreams
TTITLE5=South of the Border
TTITLE6=Walkin' After Midnight
TTITLE7=Crazy
TTITLE8=Some Other World
TTITLE9=She's Got You
TTITLE10=Nightlife
EXTD=
EXTT0=
EXTT1=
EXTT2=
EXTT3=
EXTT4=
EXTT5=
EXTT6=
EXTT7=
EXTT8=
EXTT9=
EXTT10=
PLAYORDER=
